Coordinates
version=1
nRows=11
nColumns=63
inDegrees=yes

Units are S.I. units (second, meters, Newtons, ...)
If the header above contains a line with 'inDegrees', this indicates whether rotational values are in degrees (yes) or radians (no).

endheader
time	pelvis_tilt	pelvis_list	pelvis_rotation	pelvis_tx	pelvis_ty	pelvis_tz	hip_flexion_r	hip_adduction_r	hip_rotation_r	knee_angle_r	knee_angle_r_beta	ankle_angle_r	subtalar_angle_r	mtp_angle_r	hip_flexion_l	hip_adduction_l	hip_rotation_l	knee_angle_l	knee_angle_l_beta	ankle_angle_l	subtalar_angle_l	mtp_angle_l	L5_S1_Flex_Ext	L5_S1_Lat_Bending	L5_S1_axial_rotation	L4_L5_Flex_Ext	L4_L5_Lat_Bending	L4_L5_axial_rotation	L3_L4_Flex_Ext	L3_L4_Lat_Bending	L3_L4_axial_rotation	L2_L3_Flex_Ext	L2_L3_Lat_Bending	L2_L3_axial_rotation	L1_L2_Flex_Ext	L1_L2_Lat_Bending	L1_L2_axial_rotation	L1_T12_Flex_Ext	L1_T12_Lat_Bending	L1_T12_axial_rotation	Abs_r3	Abs_r2	Abs_r1	Abs_t1	Abs_t2	neck_flexion	neck_bending	neck_rotation	arm_flex_r	arm_add_r	arm_rot_r	elbow_flex_r	pro_sup_r	wrist_flex_r	wrist_dev_r	arm_flex_l	arm_add_l	arm_rot_l	elbow_flex_l	pro_sup_l	wrist_flex_l	wrist_dev_l
2.875000	-0.185990	-10.905551	90.563559	0.202318	1.108317	0.299102	2.718263	0.906715	-5.844423	8.335678	0.145485	21.214156	0.943768	0.000000	5.065522	-1.869378	-2.441769	9.049559	0.157945	21.507646	7.998283	0.000000	-0.594744	-0.091675	6.961332	-1.104499	-0.121928	7.396415	-0.977105	-0.222898	7.396415	-0.679733	-0.222898	6.091165	-0.552279	-0.186943	5.656082	-0.339837	-0.142004	5.220999	-4.248197	-1.037044	38.716840	0.000000	0.000000	-3.387927	2.240599	-30.984751	-32.450020	-4.334297	275.972820	118.792976	57.244711	-4.957835	5.786185	65.726029	3.373745	135.115171	0.102695	0.895454	-69.628251	-23.814239
2.892857	0.106446	-9.452507	91.023604	0.205096	1.109880	0.298939	0.940929	1.517671	-5.312241	7.838580	0.136809	20.691555	-0.047376	0.000000	3.990552	-2.361164	-1.789220	9.879812	0.172435	22.107604	7.643416	0.000000	-0.685870	-0.005926	7.803817	-1.273730	-0.007881	8.291555	-1.126817	-0.014408	8.291555	-0.783881	-0.014408	6.828340	-0.636899	-0.012084	6.340601	-0.391906	-0.009179	5.852863	-4.899104	-0.067032	43.402488	0.000000	0.000000	-3.567825	3.331349	-34.675379	-35.537639	-2.067135	266.271124	125.853259	56.497987	-4.265271	3.529605	70.997481	8.486966	141.616755	0.088020	0.832743	-69.779669	-24.079870
2.910714	0.511022	-7.847828	91.361666	0.207733	1.111421	0.298749	-1.012559	2.238903	-4.484556	7.297894	0.127372	20.095004	-1.206805	0.000000	2.789779	-2.935548	-1.000297	10.816898	0.188790	22.792420	6.959189	0.000000	-0.778217	0.106398	8.613409	-1.445226	0.141510	9.151747	-1.278532	0.258697	9.151747	-0.889424	0.258697	7.536733	-0.722652	0.216967	6.998395	-0.444673	0.164811	6.460057	-5.558723	1.203598	47.905199	0.000000	0.000000	-3.468671	4.386074	-37.930644	-38.561993	0.002154	256.161560	132.159304	55.466428	-2.566332	1.794333	75.811894	13.438029	147.995079	0.074855	0.788498	-69.884365	-24.241169
2.928571	1.018876	-6.123711	91.582962	0.210189	1.112955	0.298510	-3.114749	3.053797	-3.486764	6.710186	0.117115	19.464953	-2.378530	0.000000	1.490305	-3.576806	-0.013305	11.852393	0.206863	23.510719	5.867660	0.000000	-0.869593	0.244612	9.359212	-1.614922	0.325333	9.944163	-1.428655	0.594749	9.944163	-0.993858	0.594749	8.189311	-0.807504	0.498812	7.604360	-0.496886	0.378903	7.019409	-6.211417	2.767096	52.053130	0.000000	0.000000	-3.178338	5.302010	-40.651842	-41.359668	1.812077	245.828250	137.552578	54.636667	0.181469	0.197453	80.000899	18.043270	154.055034	0.063816	0.769242	-69.916690	-24.380881
2.946429	1.606154	-4.333036	91.678881	0.212507	1.114462	0.298174	-5.321801	3.920587	-2.279938	6.071841	0.105974	18.784619	-3.650283	0.000000	0.128380	-4.257072	1.125536	12.964763	0.226278	24.232355	4.421167	0.000000	-0.957148	0.404372	10.026098	-1.777520	0.537815	10.652729	-1.572499	0.983190	10.652729	-1.093925	0.983190	8.772836	-0.888808	0.824595	8.146205	-0.546914	0.626372	7.519573	-6.836814	4.574337	55.762148	0.000000	0.000000	-2.765782	6.053213	-42.777828	-43.834340	3.315477	235.418503	141.968265	53.199401	3.890987	-0.534413	83.465527	22.136643	159.687084	0.054953	0.773709	-69.912497	-24.517147
2.964286	2.219509	-2.523505	91.666846	0.214791	1.115933	0.297726	-7.582926	4.787337	-0.939304	5.391739	0.094104	18.084352	-4.968736	0.000000	-1.256456	-4.932985	2.331049	14.124084	0.246512	24.936150	2.759678	0.000000	-1.040387	0.576862	10.600573	-1.932102	0.767227	11.263109	-1.709251	1.402582	11.263109	-1.189058	1.402582	9.275501	-0.966103	1.176337	8.612966	-0.594477	0.893559	7.950430	-7.431379	6.525579	58.957207	0.000000	0.000000	-2.349427	6.626831	-44.296585	-45.897742	4.518442	225.051091	145.474332	51.044479	8.421550	-0.412675	86.209260	25.560654	164.796217	0.048132	0.794495	-69.911096	-24.637716
2.982143	2.817508	-0.733474	91.553523	0.217112	1.117352	0.297181	-9.853544	5.606341	0.478456	4.686214	0.081790	17.384153	-6.293120	0.000000	-2.642034	-5.567450	3.510527	15.287571	0.266818	25.605820	1.012305	0.000000	-1.119191	0.755438	11.087108	-2.078450	1.004733	11.780052	-1.838719	1.836773	11.780052	-1.279123	1.836773	9.701219	-1.039281	1.540490	9.008275	-0.639506	1.170174	8.315331	-7.994269	8.545671	61.663166	0.000000	0.000000	-2.021590	7.028479	-45.266542	-47.515099	5.483031	214.803596	148.134428	48.166058	13.664334	0.444092	88.315860	28.252687	169.295460	0.043169	0.820769	-69.916472	-24.727526
3.000000	3.362899	0.998699	91.363280	0.219498	1.118682	0.296579	-12.081808	6.342083	1.907579	3.981856	0.069496	16.699576	-7.585960	0.000000	-3.992812	-6.134078	4.579298	16.429283	0.286745	26.228810	-0.678920	0.000000	-1.193223	0.934081	11.494644	-2.215934	1.242328	12.213060	-1.960346	2.271125	12.213060	-1.363735	2.271125	10.057814	-1.108027	1.904779	9.339399	-0.681808	1.446892	8.620983	-8.523072	10.566515	63.929764	0.000000	0.000000	-1.842691	7.286040	-45.780868	-48.653952	6.266663	204.762222	149.996475	44.558814	19.460877	1.885956	89.885668	30.230171	173.100169	0.039864	0.844914	-69.923690	-24.771463
3.017857	3.832536	2.634852	91.106478	0.221958	1.119886	0.295949	-14.216446	6.967195	3.307925	3.303230	0.057652	16.042750	-8.804563	0.000000	-5.280827	-6.616268	5.436611	17.518351	0.305753	26.788662	-2.182259	0.000000	-1.261539	1.108607	11.836158	-2.342803	1.474447	12.575918	-2.072582	2.695467	12.575918	-1.441813	2.695467	10.356638	-1.171465	2.260672	9.616878	-0.720843	1.717232	8.877118	-9.011045	12.540785	65.829159	0.000000	0.000000	-1.832826	7.430289	-45.950226	-49.283753	6.910517	195.122997	151.116338	40.192872	25.641146	3.655986	90.981747	31.552937	176.185655	0.037910	0.865797	-69.929798	-24.776692
3.035714	4.206682	4.141965	90.792381	0.224493	1.120926	0.295318	-16.207661	7.463810	4.632797	2.675829	0.046702	15.434758	-9.897862	0.000000	-6.481472	-6.998361	6.090262	18.527079	0.323359	27.258103	-3.529846	0.000000	-1.323762	1.275900	12.123768	-2.458359	1.696947	12.881504	-2.174809	3.102223	12.881504	-1.512928	3.102223	10.608297	-1.229245	2.601815	9.850562	-0.756398	1.976369	9.092826	-9.455500	14.433236	67.428763	0.000000	0.000000	-2.000689	7.483118	-45.870118	-49.396196	7.437665	186.076348	151.580876	35.331252	31.992772	5.532655	91.633801	32.281264	178.567220	0.036963	0.884267	-69.933537	-24.778314
3.053571	4.465822	5.477502	90.456774	0.227109	1.121758	0.294693	-17.997707	7.820487	5.823268	2.116838	0.036946	14.907939	-10.834626	0.000000	-7.550550	-7.274334	6.526341	19.441358	0.339316	27.623921	-4.660409	0.000000	-1.379634	1.430923	12.364716	-2.562118	1.903128	13.137511	-2.266601	3.479147	13.137511	-1.576784	3.479147	10.819127	-1.281128	2.917939	10.046332	-0.788323	2.216500	9.273537	-9.854588	16.186889	68.768841	0.000000	0.000000	-2.342998	7.471696	-45.637614	-49.021599	7.877788	177.783940	151.514436	30.172755	38.291383	7.399286	91.867840	32.474014	180.307585	0.036534	0.897474	-69.935402	-24.780325
